<?xml version="1.0" encoding="UTF-8"?>
<!DOCTYPE svg PUBLIC "-//W3C//DTD SVG 1.1//EN" "http://www.w3.org/Graphics/SVG/1.1/DTD/svg11.dtd">
<!-- Creator: CorelDRAW 2021 (64-Bit) -->
<svg xmlns="http://www.w3.org/2000/svg" xml:space="preserve" width="164px" height="46px" version="1.1" style="shape-rendering:geometricPrecision; text-rendering:geometricPrecision; image-rendering:optimizeQuality; fill-rule:evenodd; clip-rule:evenodd"
viewBox="0 0 164 46"
 xmlns:xlink="http://www.w3.org/1999/xlink"
 xmlns:xodm="http://www.corel.com/coreldraw/odm/2003">
 <defs>
  <style type="text/css">
   <![CDATA[
    .fil3 {fill:#252F23;fill-rule:nonzero}
    .fil1 {fill:#2B5B43;fill-rule:nonzero}
    .fil0 {fill:#7B8A76;fill-rule:nonzero}
    .fil2 {fill:white;fill-rule:nonzero}
   ]]>
  </style>
 </defs>
 <g id="Слой_x0020_1">
  <metadata id="CorelCorpID_0Corel-Layer"/>
  <g>
   <path class="fil0" d="M2.25 38.11l0 -37.11 0.77 0 0 37.11 -0.57 0.34 -0.2 -0.34zm0.2 0.34l-0.2 -0.12 0 -0.22 0.2 0.34zm11.93 6.88l-11.93 -6.88 0.38 -0.67 11.94 6.88 -0.19 0.72 -0.2 -0.05zm0.2 0.05l-0.11 0 -0.09 -0.05 0.2 0.05zm132.2 0l-132.2 0 0 -0.77 132.2 0 0.39 0.39 -0.39 0.38zm0.39 -0.38l0 0.38 -0.39 0 0.39 -0.38zm0 -44l0 44 -0.77 0 0 -44 0.38 -0.38 0.39 0.38zm-0.39 -0.38l0.39 0 0 0.38 -0.39 -0.38zm-144.14 0l144.14 0 0 0.77 -144.14 0 -0.39 -0.39 0.39 -0.38zm-0.39 0.38l0 -0.38 0.39 0 -0.39 0.38z"/>
  </g>
  <polygon class="fil1" points="161.36,9.58 91.31,9.58 91.31,19.58 161.36,19.58 "/>
  <path class="fil2" d="M99.55 15.64l0 -2.09 -1.4 0c-0.05,0.77 -0.14,1.55 -0.4,2.09l1.8 0zm-3.14 0l0.52 0c0.43,-0.79 0.48,-1.82 0.48,-2.78l2.94 0 0 2.78 0.55 0 0 1.42 -0.74 0 0 -0.74 -3.01 0 0 0.74 -0.74 0 0 -1.42z"/>
  <path class="fil2" d="M103.66 15.67c0.89,0 1.28,-0.47 1.28,-1.07 0,-0.61 -0.39,-1.08 -1.28,-1.08 -0.89,0 -1.28,0.47 -1.28,1.08 0,0.6 0.39,1.07 1.28,1.07zm-2.12 -1.07c0,-0.94 0.62,-1.8 2.11,-1.8 1.5,0 2.13,0.86 2.13,1.8 0,0.93 -0.63,1.79 -2.13,1.79 -1.49,-0.01 -2.11,-0.86 -2.11,-1.79z"/>
  <polygon class="fil2" points="106.74,12.86 107.49,12.86 108.95,14.72 110.42,12.86 111.17,12.86 111.17,16.32 110.37,16.32 110.37,14.13 109.2,15.58 108.7,15.58 107.53,14.12 107.53,16.32 106.74,16.32 "/>
  <polygon class="fil2" points="114.38,14.29 112.27,14.29 112.27,14.91 114.38,14.91 "/>
  <path class="fil2" d="M117.44 15.67c0.9,0 1.28,-0.47 1.28,-1.07 0,-0.61 -0.38,-1.08 -1.28,-1.08 -0.89,0 -1.28,0.47 -1.28,1.08 0,0.6 0.39,1.07 1.28,1.07zm-2.11 -1.07c0,-0.94 0.62,-1.8 2.11,-1.8 1.5,0 2.13,0.86 2.13,1.8 0,0.93 -0.63,1.79 -2.13,1.79 -1.49,-0.01 -2.11,-0.86 -2.11,-1.79z"/>
  <path class="fil2" d="M122.38 14.58c0.39,0 0.7,-0.12 0.7,-0.53 0,-0.4 -0.3,-0.51 -0.7,-0.51l-1.04 0 0 1.04 1.04 0zm-1.85 -1.72l1.87 0c0.85,0 1.5,0.29 1.5,1.19 0,0.91 -0.65,1.19 -1.5,1.19l-1.06 0 0 1.08 -0.8 0 0 -3.46 -0.01 0z"/>
  <path class="fil2" d="M126.97 15.05l-0.66 -1.48 -0.01 0 -0.66 1.48 1.33 0zm-1.13 -2.19l0.93 0 1.65 3.46 -0.9 0 -0.28 -0.64 -1.86 0 -0.29 0.64 -0.9 0 1.65 -3.46z"/>
  <polygon class="fil2" points="132.06,14.93 130.07,14.93 130.07,16.32 129.26,16.32 129.26,12.86 130.07,12.86 130.07,14.24 132.06,14.24 132.06,12.86 132.88,12.86 132.88,16.32 132.06,16.32 "/>
  <polygon class="fil2" points="134.72,14.56 133.76,12.86 134.66,12.86 135.4,14.23 136.11,14.23 136.11,12.86 136.92,12.86 136.92,14.23 137.64,14.23 138.36,12.86 139.26,12.86 138.32,14.56 139.34,16.32 138.43,16.32 137.64,14.93 136.92,14.93 136.92,16.32 136.11,16.32 136.11,14.93 135.4,14.93 134.6,16.32 133.69,16.32 "/>
  <polygon class="fil2" points="140.16,12.86 143.18,12.86 143.18,13.53 140.97,13.53 140.97,14.26 143.02,14.26 143.02,14.9 140.97,14.9 140.97,15.66 143.2,15.66 143.2,16.32 140.16,16.32 "/>
  <path class="fil2" d="M146.06 14.58c0.39,0 0.7,-0.12 0.7,-0.53 0,-0.4 -0.3,-0.51 -0.7,-0.51l-1.04 0 0 1.04 1.04 0zm-1.84 -1.72l1.86 0c0.85,0 1.5,0.29 1.5,1.19 0,0.91 -0.65,1.19 -1.5,1.19l-1.06 0 0 1.08 -0.8 0 0 -3.46 0 0z"/>
  <polygon class="fil2" points="148.47,12.86 151.48,12.86 151.48,13.53 149.28,13.53 149.28,14.26 151.33,14.26 151.33,14.9 149.28,14.9 149.28,15.66 151.51,15.66 151.51,16.32 148.47,16.32 "/>
  <path class="fil2" d="M153.95 14.55l1.08 0 0 -1.01 -1.08 0c-0.39,0 -0.66,0.16 -0.66,0.5 0,0.36 0.27,0.51 0.66,0.51zm1.08 0.65l-0.99 0 -0.82 1.13 -0.94 0 0.93 -1.25c-0.44,-0.17 -0.74,-0.51 -0.74,-1.04 0,-0.85 0.65,-1.18 1.43,-1.18l1.94 0 0 3.46 -0.8 0 0 -1.12 -0.01 0z"/>
  <path class="fil3" d="M22.27 30.33l-1.94 -2.94 -0.04 0 -1.93 2.94 3.91 0zm-3.39 -4.43l2.87 0 4.8 7.19 -2.52 0 -0.87 -1.31 -5.68 0 -0.87 1.31 -2.53 0 4.8 -7.19z"/>
  <polygon class="fil3" points="34.29,30.25 30.06,30.25 30.06,33.09 27.91,33.09 27.91,25.9 30.06,25.9 30.06,28.74 34.26,28.74 36.12,25.9 38.59,25.9 36.2,29.4 38.76,33.09 36.25,33.09 "/>
  <path class="fil3" d="M48.11 30.33l-1.94 -2.94 -0.03 0 -1.94 2.94 3.91 0zm-3.4 -4.43l2.87 0 4.81 7.19 -2.53 0 -0.86 -1.31 -5.69 0 -0.87 1.31 -2.53 0 4.8 -7.19z"/>
  <path class="fil3" d="M63.27 31.58l0 -4.17 -5.36 0c-0.09,1.56 -0.35,3.05 -0.91,4.17l6.27 0zm-10.01 0l1.56 0c0.88,-1.67 1.13,-3.77 1.13,-5.68l9.47 0 0 5.68 1.59 0 0 3.03 -1.94 0 0 -1.52 -9.88 0 0 1.52 -1.94 0 0 -3.03 0.01 0z"/>
  <polygon class="fil3" points="69.08,25.9 78.82,25.9 78.82,27.39 71.24,27.39 71.24,28.77 78.51,28.77 78.51,30.18 71.24,30.18 71.24,31.61 78.9,31.61 78.9,33.09 69.08,33.09 "/>
  <polygon class="fil3" points="81.38,25.9 83.46,25.9 88.07,29.84 92.7,25.9 94.78,25.9 94.78,33.09 92.68,33.09 92.68,28.26 88.77,31.6 87.37,31.6 83.47,28.26 83.47,33.09 81.38,33.09 "/>
  <polygon class="fil3" points="106.26,33.09 106.26,28.09 99.42,33.09 97.34,33.09 97.34,25.9 99.45,25.9 99.45,30.84 106.3,25.9 108.37,25.9 108.37,33.09 "/>
  <polygon class="fil3" points="117.31,30.25 113.08,30.25 113.08,33.09 110.93,33.09 110.93,25.9 113.08,25.9 113.08,28.74 117.28,28.74 119.14,25.9 121.61,25.9 119.22,29.4 121.78,33.09 119.27,33.09 "/>
  <polygon class="fil3" points="132.6,33.09 132.6,28.09 125.75,33.09 123.67,33.09 123.67,25.9 125.78,25.9 125.78,30.84 132.63,25.9 134.71,25.9 134.71,33.09 "/>
  <polygon class="fil3" points="24.39,16.89 17.58,16.89 17.58,19.74 15.43,19.74 15.43,12.55 17.58,12.55 17.58,15.32 24.39,15.32 24.39,12.55 26.55,12.55 26.55,19.74 24.39,19.74 "/>
  <path class="fil3" d="M34.89 18.29c3.13,0 3.98,-0.98 3.98,-2.15 0,-1.17 -0.85,-2.14 -3.98,-2.14 -3.11,0 -3.96,0.97 -3.96,2.14 0,1.18 0.86,2.15 3.96,2.15zm-6.17 -2.14c0,-1.95 1.35,-3.72 6.18,-3.72 4.82,0 6.19,1.77 6.19,3.72 0,1.96 -1.37,3.73 -6.19,3.73 -4.83,0 -6.18,-1.78 -6.18,-3.73z"/>
  <path class="fil3" d="M50.35 15.4c0.56,0 1.04,-0.2 1.04,-0.73 0,-0.54 -0.41,-0.73 -1.07,-0.73l-4.92 0 0 1.45 4.95 0 0 0.01zm-7.1 -2.85l7.78 0c1.6,0 2.52,0.57 2.52,1.81 0,0.78 -0.39,1.34 -1.1,1.58 0.79,0.21 1.38,0.78 1.38,1.78 0,1.51 -1.21,2.02 -2.89,2.02l-7.69 0 0 -7.19zm7.12 5.8c0.65,0 1.25,-0.15 1.25,-0.82 0,-0.68 -0.67,-0.83 -1.22,-0.83l-5 0 0 1.65 4.97 0z"/>
  <path class="fil3" d="M67.81 12.55l2.15 0 0 7.19 -2.15 0 0 -7.19zm-11.63 0l2.14 0 0 2.31 4.96 0c1.93,0 3.29,0.57 3.29,2.44 0,1.86 -1.36,2.44 -3.29,2.44l-7.1 0 0 -7.19zm6.93 5.7c0.82,0 1.31,-0.28 1.31,-0.96 0,-0.69 -0.5,-0.95 -1.31,-0.95l-4.79 0 0 1.91 4.79 0z"/>
  <polygon class="fil3" points="72.78,12.55 82.52,12.55 82.52,14.04 74.92,14.04 74.92,15.42 82.19,15.42 82.19,16.83 74.92,16.83 74.92,18.26 82.59,18.26 82.59,19.74 72.78,19.74 "/>
 </g>
</svg>
